<svg width="21" height="12" viewBox="0 0 21 12" fill="none" xmlns="http://www.w3.org/2000/svg">
<path fill-rule="evenodd" clip-rule="evenodd" d="M0.591854 0.609351C0.970932 0.235161 1.485 0.0249534 2.02102 0.0249534C2.55704 0.0249534 3.07111 0.235161 3.45019 0.609351L10.1068 7.18212L16.7635 0.609351C16.9499 0.418714 17.173 0.266655 17.4196 0.162048C17.6663 0.0574401 17.9315 0.00237836 18.1999 7.53624e-05C18.4683 -0.00222764 18.7345 0.0482737 18.9829 0.148634C19.2314 0.248993 19.4571 0.397201 19.6469 0.58461C19.8367 0.772018 19.9868 0.994873 20.0884 1.24017C20.19 1.48547 20.2412 1.7483 20.2389 2.01333C20.2365 2.27835 20.1808 2.54027 20.0748 2.78378C19.9689 3.0273 19.8149 3.24755 19.6218 3.43167L11.536 11.4156C11.1569 11.7898 10.6428 12 10.1068 12C9.57081 12 9.05674 11.7898 8.67766 11.4156L0.591854 3.43167C0.21289 3.05737 0 2.54977 0 2.02051C0 1.49125 0.21289 0.983653 0.591854 0.609351V0.609351Z" fill="#9179EF"/>
</svg>
