<svg width="116" height="51" viewBox="0 0 116 51" fill="none" xmlns="http://www.w3.org/2000/svg">
<path d="M55.304 22.74H52.056V21.2H60.372V22.74H57.124V31H55.304V22.74ZM72.767 23.524L70.009 31H68.329L66.397 25.848L64.437 31H62.757L60.013 23.524H61.665L63.639 29.04L65.697 23.524H67.167L69.183 29.068L71.213 23.524H72.767ZM80.7932 27.304C80.7932 27.4253 80.7839 27.598 80.7652 27.822H74.8992C75.0019 28.3727 75.2679 28.8113 75.6972 29.138C76.1359 29.4553 76.6772 29.614 77.3212 29.614C78.1425 29.614 78.8192 29.3433 79.3512 28.802L80.2892 29.88C79.9532 30.2813 79.5285 30.5847 79.0152 30.79C78.5019 30.9953 77.9232 31.098 77.2792 31.098C76.4579 31.098 75.7345 30.9347 75.1092 30.608C74.4839 30.2813 73.9985 29.8287 73.6532 29.25C73.3172 28.662 73.1492 27.9993 73.1492 27.262C73.1492 26.534 73.3125 25.8807 73.6392 25.302C73.9752 24.714 74.4372 24.2567 75.0252 23.93C75.6132 23.6033 76.2759 23.44 77.0132 23.44C77.7412 23.44 78.3899 23.6033 78.9592 23.93C79.5379 24.2473 79.9859 24.7 80.3032 25.288C80.6299 25.8667 80.7932 26.5387 80.7932 27.304ZM77.0132 24.84C76.4532 24.84 75.9772 25.008 75.5852 25.344C75.2025 25.6707 74.9692 26.1093 74.8852 26.66H79.1272C79.0525 26.1187 78.8239 25.68 78.4412 25.344C78.0585 25.008 77.5825 24.84 77.0132 24.84ZM89.5022 27.304C89.5022 27.4253 89.4928 27.598 89.4742 27.822H83.6082C83.7108 28.3727 83.9768 28.8113 84.4062 29.138C84.8448 29.4553 85.3862 29.614 86.0302 29.614C86.8515 29.614 87.5282 29.3433 88.0602 28.802L88.9982 29.88C88.6622 30.2813 88.2375 30.5847 87.7242 30.79C87.2108 30.9953 86.6322 31.098 85.9882 31.098C85.1668 31.098 84.4435 30.9347 83.8182 30.608C83.1928 30.2813 82.7075 29.8287 82.3622 29.25C82.0262 28.662 81.8582 27.9993 81.8582 27.262C81.8582 26.534 82.0215 25.8807 82.3482 25.302C82.6842 24.714 83.1462 24.2567 83.7342 23.93C84.3222 23.6033 84.9848 23.44 85.7222 23.44C86.4502 23.44 87.0988 23.6033 87.6682 23.93C88.2468 24.2473 88.6948 24.7 89.0122 25.288C89.3388 25.8667 89.5022 26.5387 89.5022 27.304ZM85.7222 24.84C85.1622 24.84 84.6862 25.008 84.2942 25.344C83.9115 25.6707 83.6782 26.1093 83.5942 26.66H87.8362C87.7615 26.1187 87.5328 25.68 87.1502 25.344C86.7675 25.008 86.2915 24.84 85.7222 24.84ZM95.6772 30.594C95.4718 30.762 95.2198 30.888 94.9212 30.972C94.6318 31.056 94.3238 31.098 93.9972 31.098C93.1758 31.098 92.5412 30.8833 92.0932 30.454C91.6452 30.0247 91.4212 29.3993 91.4212 28.578V24.98H90.1892V23.58H91.4212V21.872H93.1712V23.58H95.1732V24.98H93.1712V28.536C93.1712 28.9 93.2598 29.18 93.4372 29.376C93.6145 29.5627 93.8712 29.656 94.2072 29.656C94.5992 29.656 94.9258 29.5533 95.1872 29.348L95.6772 30.594Z" fill="#20AFFF"/>
<path d="M0 14C0 11.7909 1.79086 10 4 10H37V42H4C1.79086 42 0 40.2091 0 38V14Z" fill="#20AFFF"/>
<path d="M37.5 10.5H112C113.933 10.5 115.5 12.067 115.5 14V38C115.5 39.933 113.933 41.5 112 41.5H37.5V10.5Z" stroke="#20AFFF"/>
<g clip-path="url(#clip0)">
<path d="M26 21.6591C25.4794 21.8875 24.9246 22.0389 24.3462 22.1124C24.9412 21.7571 25.3954 21.1989 25.6089 20.526C25.0541 20.8567 24.4416 21.0904 23.7889 21.2208C23.2621 20.6599 22.5114 20.3125 21.6924 20.3125C20.1034 20.3125 18.8241 21.6023 18.8241 23.1834C18.8241 23.4109 18.8434 23.6296 18.8906 23.8379C16.5045 23.7215 14.3931 22.5779 12.9747 20.8358C12.7271 21.2654 12.5819 21.7571 12.5819 22.2865C12.5819 23.2805 13.0938 24.1616 13.8567 24.6717C13.3956 24.663 12.9432 24.5291 12.56 24.3183C12.56 24.327 12.56 24.3384 12.56 24.3497C12.56 25.7445 13.5549 26.903 14.8595 27.1699C14.6259 27.2337 14.3712 27.2644 14.107 27.2644C13.9232 27.2644 13.7377 27.2539 13.5636 27.2154C13.9355 28.352 14.9908 29.1876 16.2455 29.2147C15.269 29.9786 14.0291 30.4389 12.6869 30.4389C12.4515 30.4389 12.2257 30.4284 12 30.3995C13.2714 31.2194 14.7781 31.6875 16.403 31.6875C21.6845 31.6875 24.572 27.3125 24.572 23.5202C24.572 23.3934 24.5676 23.2709 24.5615 23.1493C25.1311 22.745 25.6097 22.2401 26 21.6591Z" fill="white"/>
</g>
<defs>
<clipPath id="clip0">
<rect width="14" height="14" fill="white" transform="translate(12 19)"/>
</clipPath>
</defs>
</svg>
