<svg width="63" height="62" viewBox="0 0 63 62" fill="none" xmlns="http://www.w3.org/2000/svg">
<path d="M0.534302 17.4774L32.165 36.2318V44.567L0.534302 25.8127V17.4774Z" fill="#B2A2F5"/>
<path d="M0.53355 25.8127L0.533681 17.4773L31.1101 1.84877L31.1101 9.14213L0.53355 25.8127Z" fill="#9179EF"/>
<path d="M31.1102 1.84875L62.7409 17.4774V25.8126L31.1102 9.14211V1.84875Z" fill="#B2A2F5"/>
<path d="M32.1647 44.567V36.2318L62.741 17.4774V25.8127L32.1647 44.567Z" fill="#9179EF"/>
<path d="M0.534302 34.1479L32.165 52.9023V61.2376L0.534302 42.4832V34.1479Z" fill="#B2A2F5"/>
<path d="M0.53355 42.4832L0.533681 34.1478L31.1101 18.5193L31.1101 25.8127L0.53355 42.4832Z" fill="#9179EF"/>
<path d="M31.1102 18.5193L62.7409 34.1479V42.4832L31.1102 25.8126V18.5193Z" fill="#B2A2F5"/>
<path d="M32.1647 61.2376V52.9023L62.741 34.1479V42.4832L32.1647 61.2376Z" fill="#9179EF"/>
</svg>
