<svg width="15" height="15" viewBox="0 0 15 15" fill="none" xmlns="http://www.w3.org/2000/svg">
<path d="M11.6199 10.2178L14.7244 13.2111L13.6987 14.2002L10.595 11.2062C9.4401 12.0991 8.00366 12.5847 6.52354 12.5826C2.92255 12.5826 0 9.76412 0 6.29131C0 2.81851 2.92255 0 6.52354 0C10.1245 0 13.0471 2.81851 13.0471 6.29131C13.0492 7.71874 12.5457 9.10405 11.6199 10.2178ZM10.1659 9.69911C11.0858 8.78679 11.5995 7.56386 11.5974 6.29131C11.5974 3.58745 9.32649 1.39807 6.52354 1.39807C3.71987 1.39807 1.44968 3.58745 1.44968 6.29131C1.44968 8.99448 3.71987 11.1846 6.52354 11.1846C7.84306 11.1866 9.11113 10.6911 10.0571 9.80396L10.1659 9.69911V9.69911Z" fill="#3D3D3D"/>
<rect width="14.7244" height="14.2002" stroke="#D3CBF5"/>
</svg>
