<svg width="116" height="51" viewBox="0 0 116 51" fill="none" xmlns="http://www.w3.org/2000/svg">
<path d="M56.354 31.14C55.598 31.14 54.8653 31.0327 54.156 30.818C53.456 30.6033 52.9007 30.3187 52.49 29.964L53.12 28.55C53.5213 28.8673 54.0113 29.1287 54.59 29.334C55.178 29.53 55.766 29.628 56.354 29.628C57.082 29.628 57.6233 29.5113 57.978 29.278C58.342 29.0447 58.524 28.7367 58.524 28.354C58.524 28.074 58.4213 27.8453 58.216 27.668C58.02 27.4813 57.768 27.3367 57.46 27.234C57.152 27.1313 56.732 27.0147 56.2 26.884C55.4533 26.7067 54.8467 26.5293 54.38 26.352C53.9227 26.1747 53.526 25.8993 53.19 25.526C52.8633 25.1433 52.7 24.63 52.7 23.986C52.7 23.4447 52.8447 22.9547 53.134 22.516C53.4327 22.068 53.876 21.7133 54.464 21.452C55.0613 21.1907 55.7893 21.06 56.648 21.06C57.2453 21.06 57.8333 21.1347 58.412 21.284C58.9907 21.4333 59.49 21.648 59.91 21.928L59.336 23.342C58.9067 23.09 58.4587 22.8987 57.992 22.768C57.5253 22.6373 57.0727 22.572 56.634 22.572C55.9153 22.572 55.3787 22.6933 55.024 22.936C54.6787 23.1787 54.506 23.5007 54.506 23.902C54.506 24.182 54.604 24.4107 54.8 24.588C55.0053 24.7653 55.262 24.9053 55.57 25.008C55.878 25.1107 56.298 25.2273 56.83 25.358C57.558 25.526 58.1553 25.7033 58.622 25.89C59.0887 26.0673 59.4853 26.3427 59.812 26.716C60.148 27.0893 60.316 27.5933 60.316 28.228C60.316 28.7693 60.1667 29.2593 59.868 29.698C59.5787 30.1367 59.1353 30.4867 58.538 30.748C57.9407 31.0093 57.2127 31.14 56.354 31.14ZM66.1947 23.44C67.1374 23.44 67.8934 23.7153 68.4627 24.266C69.032 24.8167 69.3167 25.6333 69.3167 26.716V31H67.5667V26.94C67.5667 26.2867 67.4127 25.7967 67.1047 25.47C66.7967 25.134 66.358 24.966 65.7887 24.966C65.1447 24.966 64.636 25.162 64.2627 25.554C63.8894 25.9367 63.7027 26.492 63.7027 27.22V31H61.9527V20.612H63.7027V24.392C63.992 24.084 64.3467 23.8507 64.7667 23.692C65.196 23.524 65.672 23.44 66.1947 23.44ZM74.3927 23.44C75.494 23.44 76.334 23.706 76.9127 24.238C77.5007 24.7607 77.7947 25.554 77.7947 26.618V31H76.1427V30.09C75.928 30.4167 75.62 30.6687 75.2187 30.846C74.8267 31.014 74.3507 31.098 73.7907 31.098C73.2307 31.098 72.7407 31.0047 72.3207 30.818C71.9007 30.622 71.574 30.356 71.3407 30.02C71.1167 29.6747 71.0047 29.2873 71.0047 28.858C71.0047 28.186 71.252 27.6493 71.7467 27.248C72.2507 26.8373 73.0393 26.632 74.1127 26.632H76.0447V26.52C76.0447 25.9973 75.886 25.596 75.5687 25.316C75.2607 25.036 74.7987 24.896 74.1827 24.896C73.7627 24.896 73.3473 24.9613 72.9367 25.092C72.5353 25.2227 72.1947 25.4047 71.9147 25.638L71.2287 24.364C71.6207 24.0653 72.092 23.8367 72.6427 23.678C73.1933 23.5193 73.7767 23.44 74.3927 23.44ZM74.1547 29.824C74.5933 29.824 74.9807 29.726 75.3167 29.53C75.662 29.3247 75.9047 29.0353 76.0447 28.662V27.794H74.2387C73.2307 27.794 72.7267 28.1253 72.7267 28.788C72.7267 29.1053 72.8527 29.3573 73.1047 29.544C73.3567 29.7307 73.7067 29.824 74.1547 29.824ZM81.7066 24.616C82.2106 23.832 83.0972 23.44 84.3666 23.44V25.106C84.2172 25.078 84.0819 25.064 83.9606 25.064C83.2792 25.064 82.7472 25.2647 82.3646 25.666C81.9819 26.058 81.7906 26.6273 81.7906 27.374V31H80.0406V23.524H81.7066V24.616ZM92.8108 27.304C92.8108 27.4253 92.8014 27.598 92.7828 27.822H86.9168C87.0194 28.3727 87.2854 28.8113 87.7148 29.138C88.1534 29.4553 88.6948 29.614 89.3388 29.614C90.1601 29.614 90.8368 29.3433 91.3688 28.802L92.3068 29.88C91.9708 30.2813 91.5461 30.5847 91.0328 30.79C90.5194 30.9953 89.9408 31.098 89.2968 31.098C88.4754 31.098 87.7521 30.9347 87.1268 30.608C86.5014 30.2813 86.0161 29.8287 85.6708 29.25C85.3348 28.662 85.1668 27.9993 85.1668 27.262C85.1668 26.534 85.3301 25.8807 85.6568 25.302C85.9928 24.714 86.4548 24.2567 87.0428 23.93C87.6308 23.6033 88.2934 23.44 89.0308 23.44C89.7588 23.44 90.4074 23.6033 90.9768 23.93C91.5554 24.2473 92.0034 24.7 92.3208 25.288C92.6474 25.8667 92.8108 26.5387 92.8108 27.304ZM89.0308 24.84C88.4708 24.84 87.9948 25.008 87.6028 25.344C87.2201 25.6707 86.9868 26.1093 86.9028 26.66H91.1448C91.0701 26.1187 90.8414 25.68 90.4588 25.344C90.0761 25.008 89.6001 24.84 89.0308 24.84Z" fill="#0029BA"/>
<path d="M0 14C0 11.7909 1.79086 10 4 10H37V42H4C1.79086 42 0 40.2091 0 38V14Z" fill="#0029BA"/>
<path d="M37.5 10.5H112C113.933 10.5 115.5 12.067 115.5 14V38C115.5 39.933 113.933 41.5 112 41.5H37.5V10.5Z" stroke="#0029BA"/>
<g clip-path="url(#clip0)">
<path d="M25.9965 33V32.9994H26V27.8649C26 25.3531 25.4592 23.4182 22.5227 23.4182C21.1111 23.4182 20.1637 24.1928 19.777 24.9272H19.7362V23.6527H16.9519V32.9994H19.8511V28.3712C19.8511 27.1527 20.0821 25.9743 21.5912 25.9743C23.0781 25.9743 23.1002 27.365 23.1002 28.4494V33H25.9965Z" fill="white"/>
<path d="M12.2312 23.6533H15.1339V33H12.2312V23.6533Z" fill="white"/>
<path d="M13.6812 19C12.7531 19 12 19.7531 12 20.6812C12 21.6093 12.7531 22.3781 13.6812 22.3781C14.6092 22.3781 15.3623 21.6093 15.3623 20.6812C15.3617 19.7531 14.6087 19 13.6812 19V19Z" fill="white"/>
</g>
<defs>
<clipPath id="clip0">
<rect width="14" height="14" fill="white" transform="translate(12 19)"/>
</clipPath>
</defs>
</svg>
