<svg width="16" height="16" viewBox="0 0 16 16" fill="none" xmlns="http://www.w3.org/2000/svg">
<path d="M4.25 15.5H2C1.60218 15.5 1.22064 15.342 0.93934 15.0607C0.658035 14.7794 0.5 14.3978 0.5 14V8.75C0.5 8.35218 0.658035 7.97064 0.93934 7.68934C1.22064 7.40804 1.60218 7.25 2 7.25H4.25M9.5 5.75V2.75C9.5 2.15326 9.26295 1.58097 8.84099 1.15901C8.41903 0.737053 7.84674 0.5 7.25 0.5L4.25 7.25V15.5H12.71C13.0717 15.5041 13.4228 15.3773 13.6984 15.143C13.9741 14.9087 14.1558 14.5827 14.21 14.225L15.245 7.475C15.2776 7.26002 15.2631 7.04051 15.2025 6.83169C15.1419 6.62287 15.0366 6.42972 14.8939 6.26564C14.7512 6.10155 14.5746 5.97045 14.3762 5.88141C14.1778 5.79238 13.9624 5.74754 13.745 5.75H9.5Z" stroke="#9179EF" stroke-linecap="round" stroke-linejoin="round"/>
</svg>
